<svg width="266" height="89" viewBox="0 0 266 89" fill="none" xmlns="http://www.w3.org/2000/svg">
<path d="M24.4 28.85C27.4667 30.6167 29 33.2833 29 36.85C29 39.8167 27.95 42.25 25.85 44.15C23.75 46.05 21.1667 47 18.1 47H3.25V12H17.05C20.05 12 22.5667 12.9333 24.6 14.8C26.6667 16.6333 27.7 18.9833 27.7 21.85C27.7 24.75 26.6 27.0833 24.4 28.85ZM17.05 18.45H10.15V26.15H17.05C18.1167 26.15 19 25.7833 19.7 25.05C20.4333 24.3167 20.8 23.4 20.8 22.3C20.8 21.2 20.45 20.2833 19.75 19.55C19.05 18.8167 18.15 18.45 17.05 18.45ZM18.1 40.55C19.2667 40.55 20.2333 40.1667 21 39.4C21.7667 38.6 22.15 37.6 22.15 36.4C22.15 35.2333 21.7667 34.2667 21 33.5C20.2333 32.7 19.2667 32.3 18.1 32.3H10.15V40.55H18.1ZM54.9141 43.9C52.3474 46.4333 49.2141 47.7 45.5141 47.7C41.8141 47.7 38.6807 46.4333 36.1141 43.9C33.5807 41.3333 32.3141 38.2 32.3141 34.5C32.3141 30.8 33.5807 27.6833 36.1141 25.15C38.6807 22.5833 41.8141 21.3 45.5141 21.3C49.2141 21.3 52.3474 22.5833 54.9141 25.15C57.4807 27.6833 58.7641 30.8 58.7641 34.5C58.7641 38.2 57.4807 41.3333 54.9141 43.9ZM40.6641 39.45C41.9641 40.75 43.5807 41.4 45.5141 41.4C47.4474 41.4 49.0641 40.75 50.3641 39.45C51.6641 38.15 52.3141 36.5 52.3141 34.5C52.3141 32.5 51.6641 30.85 50.3641 29.55C49.0641 28.25 47.4474 27.6 45.5141 27.6C43.5807 27.6 41.9641 28.25 40.6641 29.55C39.3974 30.85 38.7641 32.5 38.7641 34.5C38.7641 36.5 39.3974 38.15 40.6641 39.45ZM77.2016 21.3C79.9349 21.3 82.1849 22.2167 83.9516 24.05C85.7516 25.8833 86.6516 28.4167 86.6516 31.65V47H80.2016V32.45C80.2016 30.7833 79.7516 29.5167 78.8516 28.65C77.9516 27.75 76.7516 27.3 75.2516 27.3C73.5849 27.3 72.2516 27.8167 71.2516 28.85C70.2516 29.8833 69.7516 31.4333 69.7516 33.5V47H63.3016V22H69.7516V24.8C71.3182 22.4667 73.8016 21.3 77.2016 21.3ZM104.059 47.7C100.292 47.7 97.1423 46.4333 94.609 43.9C92.109 41.3667 90.859 38.2333 90.859 34.5C90.859 30.7667 92.109 27.6333 94.609 25.1C97.1423 22.5667 100.292 21.3 104.059 21.3C106.492 21.3 108.709 21.8833 110.709 23.05C112.709 24.2167 114.226 25.7833 115.259 27.75L109.709 31C109.209 29.9667 108.442 29.15 107.409 28.55C106.409 27.95 105.276 27.65 104.009 27.65C102.076 27.65 100.476 28.3 99.209 29.6C97.9423 30.8667 97.309 32.5 97.309 34.5C97.309 36.4667 97.9423 38.1 99.209 39.4C100.476 40.6667 102.076 41.3 104.009 41.3C105.309 41.3 106.459 41.0167 107.459 40.45C108.492 39.85 109.259 39.0333 109.759 38L115.359 41.2C114.259 43.1667 112.709 44.75 110.709 45.95C108.709 47.1167 106.492 47.7 104.059 47.7ZM125.416 26.3C126.016 24.7 126.999 23.5 128.366 22.7C129.766 21.9 131.316 21.5 133.016 21.5V28.7C131.049 28.4667 129.282 28.8667 127.716 29.9C126.182 30.9333 125.416 32.65 125.416 35.05V47H118.966V22H125.416V26.3ZM141.31 37.15C142.177 40.2833 144.527 41.85 148.36 41.85C150.827 41.85 152.693 41.0167 153.96 39.35L159.16 42.35C156.693 45.9167 153.06 47.7 148.26 47.7C144.127 47.7 140.81 46.45 138.31 43.95C135.81 41.45 134.56 38.3 134.56 34.5C134.56 30.7333 135.793 27.6 138.26 25.1C140.727 22.5667 143.893 21.3 147.76 21.3C151.427 21.3 154.443 22.5667 156.81 25.1C159.21 27.6333 160.41 30.7667 160.41 34.5C160.41 35.3333 160.327 36.2167 160.16 37.15H141.31ZM141.21 32.15H153.96C153.593 30.45 152.827 29.1833 151.66 28.35C150.527 27.5167 149.227 27.1 147.76 27.1C146.027 27.1 144.593 27.55 143.46 28.45C142.327 29.3167 141.577 30.55 141.21 32.15ZM183.718 22H190.168V47H183.718V44.05C181.784 46.4833 179.068 47.7 175.568 47.7C172.234 47.7 169.368 46.4333 166.968 43.9C164.601 41.3333 163.418 38.2 163.418 34.5C163.418 30.8 164.601 27.6833 166.968 25.15C169.368 22.5833 172.234 21.3 175.568 21.3C179.068 21.3 181.784 22.5167 183.718 24.95V22ZM171.818 39.6C173.118 40.9 174.768 41.55 176.768 41.55C178.768 41.55 180.418 40.9 181.718 39.6C183.051 38.2667 183.718 36.5667 183.718 34.5C183.718 32.4333 183.051 30.75 181.718 29.45C180.418 28.1167 178.768 27.45 176.768 27.45C174.768 27.45 173.118 28.1167 171.818 29.45C170.518 30.75 169.868 32.4333 169.868 34.5C169.868 36.5667 170.518 38.2667 171.818 39.6ZM210.566 21.3C213.933 21.3 216.8 22.5833 219.166 25.15C221.566 27.6833 222.766 30.8 222.766 34.5C222.766 38.2 221.566 41.3333 219.166 43.9C216.8 46.4333 213.933 47.7 210.566 47.7C207.066 47.7 204.366 46.4833 202.466 44.05V47H196.016V12H202.466V24.95C204.366 22.5167 207.066 21.3 210.566 21.3ZM204.416 39.6C205.716 40.9 207.366 41.55 209.366 41.55C211.366 41.55 213.016 40.9 214.316 39.6C215.65 38.2667 216.316 36.5667 216.316 34.5C216.316 32.4333 215.65 30.75 214.316 29.45C213.016 28.1167 211.366 27.45 209.366 27.45C207.366 27.45 205.716 28.1167 204.416 29.45C203.116 30.75 202.466 32.4333 202.466 34.5C202.466 36.5667 203.116 38.2667 204.416 39.6ZM232.765 37.15C233.632 40.2833 235.982 41.85 239.815 41.85C242.282 41.85 244.149 41.0167 245.415 39.35L250.615 42.35C248.149 45.9167 244.515 47.7 239.715 47.7C235.582 47.7 232.265 46.45 229.765 43.95C227.265 41.45 226.015 38.3 226.015 34.5C226.015 30.7333 227.249 27.6 229.715 25.1C232.182 22.5667 235.349 21.3 239.215 21.3C242.882 21.3 245.899 22.5667 248.265 25.1C250.665 27.6333 251.865 30.7667 251.865 34.5C251.865 35.3333 251.782 36.2167 251.615 37.15H232.765ZM232.665 32.15H245.415C245.049 30.45 244.282 29.1833 243.115 28.35C241.982 27.5167 240.682 27.1 239.215 27.1C237.482 27.1 236.049 27.55 234.915 28.45C233.782 29.3167 233.032 30.55 232.665 32.15ZM256.368 47V10.5H262.818V47H256.368Z" fill="#E2F27D"/>
<path d="M137.825 83L132.75 65.5H134.6L138.925 80.625L143.475 65.5H145.525L150.075 80.625L154.4 65.5H156.25L151.175 83H149.075L144.5 67.8L139.925 83H137.825ZM163.036 70.2C164.886 70.2 166.377 70.8583 167.511 72.175C168.661 73.475 169.236 75.0167 169.236 76.8C169.236 76.9833 169.219 77.2417 169.186 77.575H158.211C158.377 78.8417 158.911 79.85 159.811 80.6C160.727 81.3333 161.852 81.7 163.186 81.7C164.136 81.7 164.952 81.5083 165.636 81.125C166.336 80.725 166.861 80.2083 167.211 79.575L168.661 80.425C168.111 81.3083 167.361 82.0083 166.411 82.525C165.461 83.0417 164.377 83.3 163.161 83.3C161.194 83.3 159.594 82.6833 158.361 81.45C157.127 80.2167 156.511 78.65 156.511 76.75C156.511 74.8833 157.119 73.325 158.336 72.075C159.552 70.825 161.119 70.2 163.036 70.2ZM163.036 71.8C161.736 71.8 160.644 72.1917 159.761 72.975C158.894 73.7417 158.377 74.7417 158.211 75.975H167.536C167.369 74.6583 166.861 73.6333 166.011 72.9C165.161 72.1667 164.169 71.8 163.036 71.8ZM178.56 70.2C180.344 70.2 181.86 70.8333 183.11 72.1C184.377 73.3667 185.01 74.9167 185.01 76.75C185.01 78.5833 184.377 80.1333 183.11 81.4C181.86 82.6667 180.344 83.3 178.56 83.3C176.344 83.3 174.66 82.3833 173.51 80.55V83H171.86V65.5H173.51V72.95C174.66 71.1167 176.344 70.2 178.56 70.2ZM174.935 80.275C175.885 81.225 177.052 81.7 178.435 81.7C179.819 81.7 180.985 81.225 181.935 80.275C182.885 79.3083 183.36 78.1333 183.36 76.75C183.36 75.3667 182.885 74.2 181.935 73.25C180.985 72.2833 179.819 71.8 178.435 71.8C177.052 71.8 175.885 72.2833 174.935 73.25C173.985 74.2 173.51 75.3667 173.51 76.75C173.51 78.1333 173.985 79.3083 174.935 80.275ZM199.754 83.3C198.154 83.3 196.779 82.925 195.629 82.175C194.496 81.4083 193.704 80.3583 193.254 79.025L194.754 78.15C195.071 79.2333 195.654 80.0833 196.504 80.7C197.354 81.3 198.446 81.6 199.779 81.6C201.079 81.6 202.087 81.3167 202.804 80.75C203.537 80.1667 203.904 79.4 203.904 78.45C203.904 77.5333 203.571 76.8417 202.904 76.375C202.237 75.9083 201.137 75.425 199.604 74.925C197.787 74.325 196.587 73.8417 196.004 73.475C194.671 72.675 194.004 71.5167 194.004 70C194.004 68.5167 194.521 67.35 195.554 66.5C196.587 65.6333 197.862 65.2 199.379 65.2C200.746 65.2 201.929 65.5583 202.929 66.275C203.929 66.975 204.671 67.875 205.154 68.975L203.679 69.8C202.879 67.8667 201.446 66.9 199.379 66.9C198.296 66.9 197.421 67.1667 196.754 67.7C196.087 68.2333 195.754 68.975 195.754 69.925C195.754 70.7917 196.054 71.4417 196.654 71.875C197.254 72.3083 198.246 72.75 199.629 73.2C200.262 73.4167 200.712 73.575 200.979 73.675C201.262 73.7583 201.662 73.9083 202.179 74.125C202.712 74.325 203.104 74.5083 203.354 74.675C203.604 74.825 203.904 75.0417 204.254 75.325C204.621 75.5917 204.879 75.8667 205.029 76.15C205.196 76.4167 205.337 76.75 205.454 77.15C205.587 77.5333 205.654 77.95 205.654 78.4C205.654 79.8833 205.112 81.075 204.029 81.975C202.946 82.8583 201.521 83.3 199.754 83.3ZM214.667 72.1H211.067V79.675C211.067 80.3583 211.2 80.85 211.467 81.15C211.734 81.4333 212.134 81.5833 212.667 81.6C213.2 81.6 213.867 81.5833 214.667 81.55V83C212.917 83.2667 211.6 83.1417 210.717 82.625C209.85 82.1083 209.417 81.125 209.417 79.675V72.1H206.792V70.5H209.417V67.5L211.067 67V70.5H214.667V72.1ZM226.217 70.5H227.867V83H226.217V81.05C225.284 82.55 223.884 83.3 222.017 83.3C220.5 83.3 219.3 82.8417 218.417 81.925C217.55 80.9917 217.117 79.7417 217.117 78.175V70.5H218.767V78.175C218.767 79.2917 219.059 80.1583 219.642 80.775C220.242 81.3917 221.084 81.7 222.167 81.7C223.367 81.7 224.342 81.325 225.092 80.575C225.842 79.8083 226.217 78.6333 226.217 77.05V70.5ZM242.107 65.5H243.757V83H242.107V80.55C240.957 82.3833 239.274 83.3 237.057 83.3C235.274 83.3 233.749 82.6667 232.482 81.4C231.232 80.1333 230.607 78.5833 230.607 76.75C230.607 74.9167 231.232 73.3667 232.482 72.1C233.749 70.8333 235.274 70.2 237.057 70.2C239.274 70.2 240.957 71.1167 242.107 72.95V65.5ZM233.682 80.275C234.632 81.225 235.799 81.7 237.182 81.7C238.566 81.7 239.732 81.225 240.682 80.275C241.632 79.3083 242.107 78.1333 242.107 76.75C242.107 75.3667 241.632 74.2 240.682 73.25C239.732 72.2833 238.566 71.8 237.182 71.8C235.799 71.8 234.632 72.2833 233.682 73.25C232.732 74.2 232.257 75.3667 232.257 76.75C232.257 78.1333 232.732 79.3083 233.682 80.275ZM248.926 67.5C248.693 67.7333 248.409 67.85 248.076 67.85C247.743 67.85 247.459 67.7333 247.226 67.5C246.993 67.2667 246.876 66.9833 246.876 66.65C246.876 66.3167 246.993 66.0333 247.226 65.8C247.459 65.5667 247.743 65.45 248.076 65.45C248.409 65.45 248.693 65.5667 248.926 65.8C249.159 66.0333 249.276 66.3167 249.276 66.65C249.276 66.9833 249.159 67.2667 248.926 67.5ZM247.251 83V70.5H248.901V83H247.251ZM262.877 81.425C261.611 82.675 260.061 83.3 258.227 83.3C256.394 83.3 254.836 82.675 253.552 81.425C252.286 80.1583 251.652 78.6 251.652 76.75C251.652 74.9 252.286 73.35 253.552 72.1C254.836 70.8333 256.394 70.2 258.227 70.2C260.061 70.2 261.611 70.8333 262.877 72.1C264.161 73.35 264.802 74.9 264.802 76.75C264.802 78.6 264.161 80.1583 262.877 81.425ZM254.727 80.275C255.677 81.225 256.844 81.7 258.227 81.7C259.611 81.7 260.777 81.225 261.727 80.275C262.677 79.3083 263.152 78.1333 263.152 76.75C263.152 75.3667 262.677 74.2 261.727 73.25C260.777 72.2833 259.611 71.8 258.227 71.8C256.844 71.8 255.677 72.2833 254.727 73.25C253.777 74.2 253.302 75.3667 253.302 76.75C253.302 78.1333 253.777 79.3083 254.727 80.275Z" fill="white"/>
</svg>
