<svg width="56" height="45" viewBox="0 0 56 45" fill="none" xmlns="http://www.w3.org/2000/svg">
<path d="M50.6501 44.7902C51.9003 44.7902 52.9835 44.3691 53.9044 43.5376L38.1474 27.4618C37.7694 27.738 37.4029 28.0066 37.0568 28.262C35.8776 29.1483 34.9206 29.8399 34.1857 30.3355C33.4509 30.8322 32.4732 31.3385 31.2528 31.8555C30.0317 32.373 28.894 32.6309 27.8386 32.6309H27.8077H27.7768C26.7213 32.6309 25.5836 32.3731 24.3625 31.8555C23.1414 31.3385 22.1638 30.8322 21.4297 30.3355C20.6949 29.8399 19.7384 29.1484 18.5586 28.262C18.2298 28.0161 17.8652 27.7463 17.471 27.4575L1.71094 43.5376C2.63173 44.3691 3.71569 44.7902 4.96576 44.7902H50.6501V44.7902Z" fill="white"/>
<path d="M3.13497 17.339C1.95588 16.537 0.910288 15.6185 0 14.584V39.0419L13.8882 24.8734C11.1098 22.8945 7.5299 20.3859 3.13497 17.339Z" fill="white"/>
<path d="M52.5134 17.339C48.2861 20.2579 44.6932 22.7709 41.7344 24.879L55.617 39.0425V14.584C54.7269 15.5977 53.6925 16.5156 52.5134 17.339Z" fill="white"/>
<path d="M50.6516 0.209473H4.96739C3.3736 0.209473 2.14827 0.758532 1.28989 1.85552C0.430793 2.95302 0.00195312 4.32557 0.00195312 5.97162C0.00195312 7.30121 0.571047 8.74185 1.70873 10.2939C2.84641 11.8454 4.057 13.0641 5.33989 13.9505C6.04318 14.4574 8.16405 15.9616 11.7025 18.4626C13.6127 19.813 15.2738 20.99 16.7013 22.0057C17.918 22.8706 18.9674 23.6196 19.8337 24.2412C19.9332 24.3124 20.0896 24.4265 20.2972 24.578C20.5209 24.7418 20.8039 24.9498 21.1531 25.2071C21.8254 25.7032 22.384 26.1042 22.8289 26.4106C23.2732 26.717 23.8115 27.0593 24.443 27.4395C25.074 27.8191 25.6692 28.1045 26.2277 28.2944C26.7864 28.4841 27.3036 28.5793 27.7794 28.5793H27.8103H27.8412C28.3169 28.5793 28.8342 28.4841 29.393 28.2944C29.9515 28.1045 30.5461 27.8197 31.1776 27.4395C31.8085 27.0593 32.3461 26.7163 32.7918 26.4106C33.2367 26.1042 33.7953 25.7033 34.4678 25.2071C34.8163 24.9498 35.0993 24.7417 35.323 24.5785C35.5307 24.4264 35.687 24.313 35.787 24.2412C36.462 23.7621 37.5137 23.0162 38.9278 22.0145C41.5008 20.1906 45.2902 17.5062 50.3119 13.9505C51.8221 12.8743 53.0839 11.5756 54.098 10.0563C55.1103 8.53695 55.6178 6.94324 55.6178 5.27566C55.6178 3.88241 55.1257 2.69024 54.1438 1.69729C53.1607 0.705584 51.9965 0.209473 50.6516 0.209473Z" fill="white"/>
</svg>
