<svg width="47" height="44" viewBox="0 0 47 44" fill="none" xmlns="http://www.w3.org/2000/svg">
<path d="M0.830159 21.1112L11.6599 25.395L15.8517 39.682C16.1199 40.5971 17.1757 40.9353 17.8764 40.3281L23.9131 35.1125C24.5459 34.5661 25.4472 34.5389 26.1085 35.0476L36.9965 43.4254C37.7462 44.0028 38.8082 43.5675 38.9962 42.6075L46.9723 1.94632C47.1775 0.897625 46.2052 0.0227723 45.263 0.408976L0.817469 18.5803C-0.279355 19.0286 -0.269798 20.6744 0.830159 21.1112ZM15.1761 23.1146L36.3415 9.29913C36.7219 9.05157 37.1132 9.59668 36.7866 9.91779L19.319 27.1259C18.705 27.7316 18.309 28.5422 18.1968 29.4221L17.6018 34.0954C17.523 34.7193 16.6959 34.7813 16.5335 34.1774L14.2451 25.6555C13.983 24.6835 14.3649 23.6453 15.1761 23.1146Z" fill="white"/>
</svg>
